<mxfile host="app.diagrams.net" agent="Mozilla/5.0 (Windows NT 10.0; Win64; x64; rv:133.0) Gecko/20100101 Firefox/133.0" version="26.0.3">
  <diagram name="Seite-1" id="SQaCn81tfxqMI6oKNPrh">
    <mxGraphModel dx="888" dy="817" grid="1" gridSize="10" guides="1" tooltips="1" connect="1" arrows="1" fold="1" page="1" pageScale="1" pageWidth="827" pageHeight="1169" math="0" shadow="0">
      <root>
        <mxCell id="0" />
        <mxCell id="1" parent="0" />
        <mxCell id="B2yuRSLzfKdRKHyc1kqe-4" value="Datenquellen (z.B. CEP Ã¼ber Kafka)" style="rounded=0;whiteSpace=wrap;html=1;labelPosition=center;verticalLabelPosition=top;align=center;verticalAlign=bottom;" parent="1" vertex="1">
          <mxGeometry x="20" y="280" width="220" height="400" as="geometry" />
        </mxCell>
        <mxCell id="B2yuRSLzfKdRKHyc1kqe-1" value="Sensoren" style="rounded=0;whiteSpace=wrap;html=1;" parent="1" vertex="1">
          <mxGeometry x="50" y="320" width="160" height="80" as="geometry" />
        </mxCell>
        <mxCell id="B2yuRSLzfKdRKHyc1kqe-2" value="Microservices" style="rounded=0;whiteSpace=wrap;html=1;" parent="1" vertex="1">
          <mxGeometry x="50" y="440" width="160" height="80" as="geometry" />
        </mxCell>
        <mxCell id="B2yuRSLzfKdRKHyc1kqe-3" value="Sonstige Quellen" style="rounded=0;whiteSpace=wrap;html=1;" parent="1" vertex="1">
          <mxGeometry x="50" y="560" width="160" height="80" as="geometry" />
        </mxCell>
        <mxCell id="B2yuRSLzfKdRKHyc1kqe-5" value="Speed Layer" style="rounded=0;whiteSpace=wrap;html=1;" parent="1" vertex="1">
          <mxGeometry x="320" y="320" width="200" height="80" as="geometry" />
        </mxCell>
        <mxCell id="B2yuRSLzfKdRKHyc1kqe-6" value="Batch Layer" style="rounded=0;whiteSpace=wrap;html=1;" parent="1" vertex="1">
          <mxGeometry x="320" y="560" width="200" height="80" as="geometry" />
        </mxCell>
        <mxCell id="B2yuRSLzfKdRKHyc1kqe-7" value="Serving Layer" style="rounded=0;whiteSpace=wrap;html=1;" parent="1" vertex="1">
          <mxGeometry x="570" y="560" width="200" height="80" as="geometry" />
        </mxCell>
        <mxCell id="B2yuRSLzfKdRKHyc1kqe-8" value="" style="endArrow=classic;html=1;rounded=0;entryX=0;entryY=0.5;entryDx=0;entryDy=0;exitX=1;exitY=0.5;exitDx=0;exitDy=0;" parent="1" source="B2yuRSLzfKdRKHyc1kqe-4" target="B2yuRSLzfKdRKHyc1kqe-5" edge="1">
          <mxGeometry width="50" height="50" relative="1" as="geometry">
            <mxPoint x="240" y="470" as="sourcePoint" />
            <mxPoint x="290" y="420" as="targetPoint" />
          </mxGeometry>
        </mxCell>
        <mxCell id="B2yuRSLzfKdRKHyc1kqe-9" value="" style="endArrow=classic;html=1;rounded=0;entryX=0;entryY=0.5;entryDx=0;entryDy=0;exitX=1;exitY=0.5;exitDx=0;exitDy=0;" parent="1" source="B2yuRSLzfKdRKHyc1kqe-4" target="B2yuRSLzfKdRKHyc1kqe-6" edge="1">
          <mxGeometry width="50" height="50" relative="1" as="geometry">
            <mxPoint x="270" y="520" as="sourcePoint" />
            <mxPoint x="350" y="400" as="targetPoint" />
          </mxGeometry>
        </mxCell>
        <mxCell id="B2yuRSLzfKdRKHyc1kqe-11" value="" style="endArrow=classic;html=1;rounded=0;entryX=0;entryY=0.5;entryDx=0;entryDy=0;exitX=1;exitY=0.5;exitDx=0;exitDy=0;" parent="1" source="B2yuRSLzfKdRKHyc1kqe-6" target="B2yuRSLzfKdRKHyc1kqe-7" edge="1">
          <mxGeometry width="50" height="50" relative="1" as="geometry">
            <mxPoint x="590" y="600" as="sourcePoint" />
            <mxPoint x="770" y="680" as="targetPoint" />
          </mxGeometry>
        </mxCell>
        <mxCell id="nMcq_2G77qA_jMTTrSmX-1" value="Queries" style="ellipse;whiteSpace=wrap;html=1;" parent="1" vertex="1">
          <mxGeometry x="860" y="420" width="120" height="80" as="geometry" />
        </mxCell>
        <mxCell id="nMcq_2G77qA_jMTTrSmX-3" value="" style="endArrow=classic;html=1;rounded=0;entryX=1;entryY=0.5;entryDx=0;entryDy=0;exitX=0;exitY=0;exitDx=0;exitDy=0;" parent="1" edge="1">
          <mxGeometry width="50" height="50" relative="1" as="geometry">
            <mxPoint x="878" y="432" as="sourcePoint" />
            <mxPoint x="520" y="360" as="targetPoint" />
          </mxGeometry>
        </mxCell>
        <mxCell id="nMcq_2G77qA_jMTTrSmX-4" value="" style="endArrow=classic;html=1;rounded=0;entryX=1;entryY=0.5;entryDx=0;entryDy=0;exitX=0;exitY=1;exitDx=0;exitDy=0;" parent="1" source="nMcq_2G77qA_jMTTrSmX-1" target="B2yuRSLzfKdRKHyc1kqe-7" edge="1">
          <mxGeometry width="50" height="50" relative="1" as="geometry">
            <mxPoint x="898" y="516" as="sourcePoint" />
            <mxPoint x="540" y="444" as="targetPoint" />
          </mxGeometry>
        </mxCell>
      </root>
    </mxGraphModel>
  </diagram>
</mxfile>
